<?xml version="1.0" encoding="utf-8"?>
<!-- Generator: Adobe Illustrator 24.0.1, SVG Export Plug-In . SVG Version: 6.00 Build 0)  -->
<svg version="1.1" id="Слой_1" xmlns="http://www.w3.org/2000/svg" xmlns:xlink="http://www.w3.org/1999/xlink" x="0px" y="0px"
	 viewBox="0 0 595.3 841.9" style="enable-background:new 0 0 595.3 841.9;" xml:space="preserve">
<style type="text/css">
	.st0{fill:none;}
	.st1{enable-background:new    ;}
	.st2{fill:#518371;}
	.st3{fill:#7C7F7F;}
	.st4{fill:#FFFFFF;}
</style>
<rect x="98" y="374" class="st0" width="439" height="64"/>
<g class="st1">
	<path class="st2" d="M125.3,408.5c-2.3,0-3.5-1-3.5-2.9c0-2,1.3-3,3.8-3h17.4c4.6,0,5.1,3.4,5.1,7.1c0,15.2-9.3,27.6-23.9,27.6
		c-17.6,0-26.1-16.3-26.1-31.4c0-16.9,9-31.2,27.2-31.2c5.7,0,13,2.3,17.8,7.4c0.9,0.9,1.4,1.8,1.4,2.6c0,1.5-1.1,3.4-3.1,3.4
		c-0.9,0-2.2-0.7-2.8-1.3c-4.6-4.2-9.3-5.7-13.6-5.7c-13.6,0-20.3,10.5-20.3,24.7c0,12.1,6.6,25.4,19.8,25.4
		c11.2,0,17.6-9.8,17.6-21.5c0-0.7,0.1-1.1-0.3-1.2H125.3z"/>
	<path class="st2" d="M155.4,380.4c0-2.2,1.5-3.2,4.6-3.2h18.4c11.9,0,18.2,8.3,18.2,16.6c0,6.6-4,13.1-12.3,15.4l11.2,21.9
		c0.5,1,0.7,1.9,0.7,2.8c0,1.5-0.8,2.6-2.6,2.6c-1,0-2.1-0.3-2.7-1.6l-12.9-24.5h-16.8v22.4c0,2.4-1,3.6-2.9,3.6c-2,0-3-1.2-3-3.6
		V380.4z M161.3,383v21.6H179c7.8,0,11.5-5.2,11.5-10.6c0-5.4-3.9-11-11.5-11H161.3z"/>
	<path class="st2" d="M204.6,380.9c0-2.4,1.1-3.6,3.3-3.6h24.3c2,0,3,1,3,3c0,1.9-1,2.9-3,2.9h-21.8v19.7h17.9c2,0,3,1,3,3
		c0,1.8-1,2.8-3,2.8h-17.9v22h22.4c2.3,0,3.4,1,3.4,3c0,1.9-1.1,2.9-3.4,2.9h-25c-2.9,0-3.3-0.7-3.3-3.6V380.9z"/>
	<path class="st2" d="M244,380.9c0-2.4,1.1-3.6,3.3-3.6h24.3c2,0,3,1,3,3c0,1.9-1,2.9-3,2.9h-21.8v19.7h17.9c2,0,3,1,3,3
		c0,1.8-1,2.8-3,2.8h-17.9v22h22.4c2.3,0,3.4,1,3.4,3c0,1.9-1.1,2.9-3.4,2.9h-25c-2.9,0-3.3-0.7-3.3-3.6V380.9z"/>
	<path class="st2" d="M283.4,380.6c0-2.3,1-3.5,2.9-3.5c1.5,0,2.9,1,4.2,2.9l31.2,45.9v-45.7c0-2,1-3,2.9-3c2,0,3,1,3,3V433
		c0,2.3-1,3.5-2.9,3.5c-1.5,0-2.9-0.8-4-2.4l-31.4-45.8v45.1c0,2-1,3-2.9,3c-2,0-3-1-3-3V380.6z"/>
	<path class="st2" d="M361.8,380.4c0-2.2,1.1-3.2,3.3-3.2h17c11,0,19.6,7.4,19.6,18.2c0,10.2-8.7,17.8-19.1,17.8h-14.9v20.3
		c0,2-1,3-2.9,3c-2,0-3-1-3-3V380.4z M367.6,383v24.3h14.6c7.4,0,13.4-4.6,13.4-12.1c0-7.7-6.1-12.2-14.6-12.2H367.6z"/>
	<path class="st2" d="M410.2,380.1c0-2,1-3,2.9-3c2,0,3,1,3,3v53.4c0,2-1,3-3,3c-1.9,0-2.9-1-2.9-3V380.1z"/>
	<path class="st2" d="M425.5,380.6c0-2.3,1-3.5,2.9-3.5c1.5,0,2.9,1,4.2,2.9l31.2,45.9v-45.7c0-2,1-3,2.9-3c2,0,3,1,3,3V433
		c0,2.3-1,3.5-2.9,3.5c-1.5,0-2.9-0.8-4-2.4l-31.4-45.8v45.1c0,2-1,3-2.9,3c-2,0-3-1-3-3V380.6z"/>
</g>
<g class="st1">
	<path class="st3" d="M318.6,451.4c0-0.5,0.3-0.7,0.7-0.7h3.8c2.5,0,4.4,1.7,4.4,4.1c0,2.3-2,4-4.3,4H320v4.6c0,0.5-0.2,0.7-0.6,0.7
		c-0.5,0-0.7-0.2-0.7-0.7V451.4z M320,452v5.5h3.3c1.7,0,3-1,3-2.7c0-1.7-1.4-2.8-3.3-2.8H320z"/>
	<path class="st3" d="M329.5,454.6c0-0.5,0.2-0.7,0.6-0.7c0.5,0,0.7,0.2,0.7,0.7v0.9c0.7-1.2,1.9-1.7,3.2-1.7c1,0,1.3,0.4,1.3,0.8
		c0,0.4-0.3,0.7-0.7,0.7c-0.5,0-0.6-0.1-1.2-0.1c-1.2,0-2.5,1.2-2.5,2.6v5.7c0,0.4-0.2,0.6-0.7,0.6c-0.4,0-0.6-0.2-0.6-0.6V454.6z"
		/>
	<path class="st3" d="M344.7,459.1c0,2.7-1.5,5.1-4.4,5.1c-2.9,0-4.4-2.6-4.4-5.3s1.5-5.3,4.4-5.3
		C343.2,453.7,344.7,456.4,344.7,459.1z M337.4,458.8c0,1.8,0.9,4.1,3,4.1c2.1,0,3-1.9,3-3.8c0-1.8-0.9-4.2-3-4.2
		C338.3,455,337.4,456.9,337.4,458.8z"/>
	<path class="st3" d="M346.8,452.6c0-0.4,0.2-0.6,0.6-0.6c0.5,0,0.7,0.2,0.7,0.6v1.5h1.6c0.5,0,0.7,0.2,0.7,0.6s-0.2,0.6-0.7,0.6
		h-1.6v5.5c0,1.4,0.1,2.2,1.3,2.2c0.5,0,0.8,0.2,0.8,0.6c0,0.4-0.3,0.6-0.8,0.6c-2.1,0-2.6-1.3-2.6-3.4v-5.5h-0.6
		c-0.4,0-0.6-0.2-0.6-0.6c0-0.4,0.2-0.6,0.6-0.6h0.7V452.6z"/>
	<path class="st3" d="M360.2,458.2c0,1-0.2,1.5-1,1.5h-6.1c0,1.6,1.6,3.3,3.2,3.3c1,0,1.6-0.2,2.4-0.9c0.2-0.2,0.5-0.3,0.8-0.3
		c0.3,0,0.6,0.2,0.6,0.6c0,0.1,0,0.3-0.1,0.4c-0.8,1.1-2.1,1.6-3.7,1.6c-3,0-4.6-2.4-4.6-5.3c0-2.6,1.5-5.3,4.4-5.3
		C358.7,453.7,360.2,455.5,360.2,458.2z M358.9,458.3c0-1.8-1.1-3.3-2.8-3.3c-1.7,0-3,1.5-3,3.3H358.9z"/>
	<path class="st3" d="M363.9,459.1c0,2.1,1.5,3.8,3.5,3.8c0.6,0,1.4-0.2,2-0.6c0.1-0.1,0.2-0.1,0.2-0.1c0.3,0,0.5,0.3,0.5,0.6
		c0,0.3-0.2,0.5-0.4,0.7c-0.8,0.5-1.6,0.7-2.4,0.7c-2.7,0-4.8-2.3-4.8-5.2c0-3,2.2-5.1,4.8-5.1c0.7,0,1.4,0.1,2.1,0.4
		c0.4,0.2,0.6,0.4,0.6,0.6c0,0.4-0.2,0.7-0.6,0.7c-0.1,0-0.1,0-0.2,0c-0.5-0.2-1.4-0.4-2-0.4C365.4,455.2,363.9,456.7,363.9,459.1z"
		/>
	<path class="st3" d="M373.1,452.6c0-0.4,0.2-0.6,0.6-0.6c0.5,0,0.7,0.2,0.7,0.6v1.5h1.6c0.5,0,0.7,0.2,0.7,0.6s-0.2,0.6-0.7,0.6
		h-1.6v5.5c0,1.4,0.1,2.2,1.3,2.2c0.5,0,0.8,0.2,0.8,0.6c0,0.4-0.3,0.6-0.8,0.6c-2.1,0-2.6-1.3-2.6-3.4v-5.5h-0.6
		c-0.4,0-0.6-0.2-0.6-0.6c0-0.4,0.2-0.6,0.6-0.6h0.7V452.6z"/>
	<path class="st3" d="M393.2,459.1c0,2.7-1.5,5.1-4.4,5.1c-2.9,0-4.4-2.6-4.4-5.3s1.5-5.3,4.4-5.3
		C391.7,453.7,393.2,456.4,393.2,459.1z M385.9,458.8c0,1.8,0.9,4.1,3,4.1c2.1,0,3-1.9,3-3.8c0-1.8-0.9-4.2-3-4.2
		C386.8,455,385.9,456.9,385.9,458.8z"/>
	<path class="st3" d="M396.5,459.6c0,2.8,1.1,3.3,2.3,3.3c1.4,0,2.8-1.4,2.8-3.9v-4.5c0-0.4,0.1-0.7,0.6-0.7c0.4,0,0.6,0.2,0.6,0.7
		v9.1c0,0.4-0.2,0.6-0.6,0.6c-0.5,0-0.7-0.2-0.7-0.6v-1.2c-0.8,1.3-1.9,1.9-2.9,1.9c-1.8,0-3.5-1.1-3.5-4.1v-5.6
		c0-0.5,0.2-0.7,0.6-0.7c0.5,0,0.7,0.2,0.7,0.7L396.5,459.6z"/>
	<path class="st3" d="M404.6,454.6c0-0.5,0.2-0.7,0.6-0.7c0.5,0,0.7,0.2,0.7,0.7v0.9c0.7-1.2,1.9-1.7,3.2-1.7c1,0,1.3,0.4,1.3,0.8
		c0,0.4-0.3,0.7-0.7,0.7c-0.5,0-0.6-0.1-1.2-0.1c-1.2,0-2.5,1.2-2.5,2.6v5.7c0,0.4-0.2,0.6-0.7,0.6c-0.4,0-0.6-0.2-0.6-0.6V454.6z"
		/>
	<path class="st3" d="M417.8,454.6c0-0.5,0.2-0.7,0.6-0.7c0.5,0,0.7,0.2,0.7,0.7v0.7c0.6-1.1,1.6-1.6,2.7-1.6c1.7,0,3.5,1.3,3.5,3.4
		v6.2c0,0.4-0.2,0.6-0.7,0.6c-0.4,0-0.6-0.2-0.6-0.6v-5.7c0-1.8-1.2-2.7-2.4-2.7c-1.2,0-2.5,0.9-2.5,2.7v5.7c0,0.4-0.2,0.6-0.7,0.6
		c-0.4,0-0.6-0.2-0.6-0.6V454.6z"/>
	<path class="st3" d="M431.6,453.8c2.4,0,3.7,1.4,3.7,3.3v6.5c0,0.3-0.2,0.7-0.7,0.7c-0.4,0-0.6-0.3-0.7-0.6c0-0.3,0-0.5,0-0.6
		c-0.8,0.8-1.9,1.3-3.1,1.3c-1.8,0-3.5-1-3.5-3c0-2.1,1.9-3.2,3.8-3.2c1,0,2.1,0.3,2.7,0.9v-1.7c0-1.2-1-2.1-2.7-2.1
		c-1.2,0-1.9,0.4-2.5,0.4c-0.3,0-0.6-0.1-0.6-0.6c0-0.2,0.2-0.5,0.5-0.6C429.4,454,430.4,453.8,431.6,453.8z M431.1,462.9
		c1.4,0,2.8-0.7,2.8-2c0-1.1-1.4-1.7-2.7-1.7c-1.3,0-2.5,0.6-2.5,1.8C428.7,462.3,429.8,462.9,431.1,462.9z"/>
	<path class="st3" d="M438.5,452.6c0-0.4,0.2-0.6,0.6-0.6c0.5,0,0.7,0.2,0.7,0.6v1.5h1.6c0.5,0,0.7,0.2,0.7,0.6s-0.2,0.6-0.7,0.6
		h-1.6v5.5c0,1.4,0.1,2.2,1.3,2.2c0.5,0,0.8,0.2,0.8,0.6c0,0.4-0.3,0.6-0.8,0.6c-2.1,0-2.6-1.3-2.6-3.4v-5.5H438
		c-0.4,0-0.6-0.2-0.6-0.6c0-0.4,0.2-0.6,0.6-0.6h0.7V452.6z"/>
	<path class="st3" d="M445.6,459.6c0,2.8,1.1,3.3,2.3,3.3c1.4,0,2.8-1.4,2.8-3.9v-4.5c0-0.4,0.1-0.7,0.6-0.7c0.4,0,0.6,0.2,0.6,0.7
		v9.1c0,0.4-0.2,0.6-0.6,0.6c-0.5,0-0.7-0.2-0.7-0.6v-1.2c-0.8,1.3-1.9,1.9-2.9,1.9c-1.8,0-3.5-1.1-3.5-4.1v-5.6
		c0-0.5,0.2-0.7,0.6-0.7c0.5,0,0.7,0.2,0.7,0.7L445.6,459.6z"/>
	<path class="st3" d="M453.8,454.6c0-0.5,0.2-0.7,0.6-0.7c0.5,0,0.7,0.2,0.7,0.7v0.9c0.7-1.2,1.9-1.7,3.2-1.7c1,0,1.3,0.4,1.3,0.8
		c0,0.4-0.3,0.7-0.7,0.7c-0.5,0-0.6-0.1-1.2-0.1c-1.2,0-2.5,1.2-2.5,2.6v5.7c0,0.4-0.2,0.6-0.7,0.6c-0.4,0-0.6-0.2-0.6-0.6V454.6z"
		/>
	<path class="st3" d="M469,458.2c0,1-0.2,1.5-1,1.5h-6.1c0,1.6,1.6,3.3,3.2,3.3c1,0,1.6-0.2,2.4-0.9c0.2-0.2,0.5-0.3,0.8-0.3
		c0.3,0,0.6,0.2,0.6,0.6c0,0.1,0,0.3-0.1,0.4c-0.8,1.1-2.1,1.6-3.7,1.6c-3,0-4.6-2.4-4.6-5.3c0-2.6,1.5-5.3,4.4-5.3
		C467.5,453.7,469,455.5,469,458.2z M467.7,458.3c0-1.8-1.1-3.3-2.8-3.3c-1.7,0-3,1.5-3,3.3H467.7z"/>
</g>
<path class="st3" d="M413.5,329.1c-7.7,0-13.9,6.6-13.9,14.7c0,10.1,12.4,24.8,13,25.5c0.5,0.6,1.4,0.6,1.9,0
	c0.5-0.6,13-15.4,13-25.5C427.3,335.7,421.1,329.1,413.5,329.1z"/>
<circle class="st4" cx="413.5" cy="343.3" r="7.1"/>
</svg>
