<svg width="24" height="24" viewBox="0 0 24 24" fill="none" xmlns="http://www.w3.org/2000/svg">
<g clip-path="url(#clip0)">
<path d="M23.2015 5.49717C22.7224 4.99526 22.0608 4.69869 21.308 4.69869H17.5209V4.65306C17.5209 4.08272 17.2928 3.53519 16.9049 3.17017C16.5171 2.78234 15.9924 2.5542 15.4221 2.5542H8.57795C7.98479 2.5542 7.46008 2.78234 7.07224 3.17017C6.68441 3.558 6.45627 4.08272 6.45627 4.65306V4.69869H2.69202C1.93916 4.69869 1.27757 4.99526 0.798479 5.49717C0.319392 5.97625 0 6.66066 0 7.3907V18.7519C0 19.5048 0.296578 20.1664 0.798479 20.6455C1.27757 21.1245 1.96198 21.4439 2.69202 21.4439H21.308C22.0608 21.4439 22.7224 21.1474 23.2015 20.6455C23.6806 20.1664 24 19.482 24 18.7519V7.3907C24 6.63785 23.7034 5.97625 23.2015 5.49717ZM22.8137 18.7519H22.7909C22.7909 19.1626 22.6312 19.5276 22.3574 19.8014C22.0837 20.0751 21.7186 20.2348 21.308 20.2348H2.69202C2.28137 20.2348 1.91635 20.0751 1.64259 19.8014C1.36882 19.5276 1.20913 19.1626 1.20913 18.7519V7.3907C1.20913 6.98006 1.36882 6.61504 1.64259 6.34127C1.91635 6.06751 2.28137 5.90781 2.69202 5.90781H7.09506C7.43726 5.90781 7.71103 5.63405 7.71103 5.29184V4.63024C7.71103 4.37929 7.80228 4.15116 7.96198 3.99146C8.12167 3.83177 8.34981 3.74051 8.60076 3.74051H15.4221C15.673 3.74051 15.9011 3.83177 16.0608 3.99146C16.2205 4.15116 16.3118 4.37929 16.3118 4.63024V5.29184C16.3118 5.63405 16.5856 5.90781 16.9278 5.90781H21.3308C21.7414 5.90781 22.1065 6.06751 22.3802 6.34127C22.654 6.61504 22.8137 6.98006 22.8137 7.3907V18.7519Z" fill="#518371"/>
<path d="M12.0008 7.45898C10.4495 7.45898 9.03506 8.09777 8.03126 9.10157C7.00464 10.1282 6.38867 11.5198 6.38867 13.0712C6.38867 14.6225 7.02746 16.0369 8.03126 17.0407C9.05788 18.0674 10.4495 18.6833 12.0008 18.6833C13.5522 18.6833 14.9666 18.0445 15.9704 17.0407C16.997 16.0141 17.613 14.6225 17.613 13.0712C17.613 11.5198 16.9742 10.1054 15.9704 9.10157C14.9666 8.09777 13.5522 7.45898 12.0008 7.45898ZM15.1035 16.1966C14.305 16.9723 13.21 17.4742 12.0008 17.4742C10.7917 17.4742 9.69666 16.9723 8.89818 16.1966C8.0997 15.3982 7.62061 14.3031 7.62061 13.094C7.62061 11.8848 8.12251 10.7898 8.89818 9.99131C9.69666 9.19283 10.7917 8.71374 12.0008 8.71374C13.21 8.71374 14.305 9.21564 15.1035 9.99131C15.902 10.7898 16.3811 11.8848 16.3811 13.094C16.4039 14.3031 15.902 15.3982 15.1035 16.1966Z" fill="#518371"/>
<path d="M20.1218 9.67227C20.7392 9.67227 21.2396 9.17178 21.2396 8.55439C21.2396 7.93701 20.7392 7.43652 20.1218 7.43652C19.5044 7.43652 19.0039 7.93701 19.0039 8.55439C19.0039 9.17178 19.5044 9.67227 20.1218 9.67227Z" fill="#518371"/>
</g>
<defs>
<clipPath id="clip0">
<rect width="24" height="24" fill="white"/>
</clipPath>
</defs>
</svg>
