<svg width="24" height="22" viewBox="0 0 24 22" fill="none" xmlns="http://www.w3.org/2000/svg">
<g filter="url(#filter0_d)">
<path d="M23.2015 3.49717C22.7224 2.99526 22.0608 2.69869 21.308 2.69869H17.5209V2.65306C17.5209 2.08272 17.2928 1.53519 16.9049 1.17017C16.5171 0.782336 15.9924 0.554199 15.4221 0.554199H8.57795C7.98479 0.554199 7.46008 0.782336 7.07224 1.17017C6.68441 1.558 6.45627 2.08272 6.45627 2.65306V2.69869H2.69202C1.93916 2.69869 1.27757 2.99526 0.798479 3.49717C0.319392 3.97625 0 4.66066 0 5.3907V16.7519C0 17.5048 0.296578 18.1664 0.798479 18.6455C1.27757 19.1245 1.96198 19.4439 2.69202 19.4439H21.308C22.0608 19.4439 22.7224 19.1474 23.2015 18.6455C23.6806 18.1664 24 17.482 24 16.7519V5.3907C24 4.63785 23.7034 3.97625 23.2015 3.49717ZM22.8137 16.7519H22.7909C22.7909 17.1626 22.6312 17.5276 22.3574 17.8013C22.0837 18.0751 21.7186 18.2348 21.308 18.2348H2.69202C2.28137 18.2348 1.91635 18.0751 1.64259 17.8013C1.36882 17.5276 1.20913 17.1626 1.20913 16.7519V5.3907C1.20913 4.98006 1.36882 4.61504 1.64259 4.34127C1.91635 4.06751 2.28137 3.90781 2.69202 3.90781H7.09506C7.43726 3.90781 7.71103 3.63405 7.71103 3.29184V2.63024C7.71103 2.37929 7.80228 2.15116 7.96198 1.99146C8.12167 1.83177 8.34981 1.74051 8.60076 1.74051H15.4221C15.673 1.74051 15.9011 1.83177 16.0608 1.99146C16.2205 2.15116 16.3118 2.37929 16.3118 2.63024V3.29184C16.3118 3.63405 16.5856 3.90781 16.9278 3.90781H21.3308C21.7414 3.90781 22.1065 4.06751 22.3802 4.34127C22.654 4.61504 22.8137 4.98006 22.8137 5.3907V16.7519Z" fill="#518371"/>
<path d="M12.0008 5.45898C10.4495 5.45898 9.03506 6.09777 8.03126 7.10157C7.00464 8.12819 6.38867 9.51983 6.38867 11.0712C6.38867 12.6225 7.02746 14.0369 8.03126 15.0407C9.05788 16.0674 10.4495 16.6833 12.0008 16.6833C13.5522 16.6833 14.9666 16.0445 15.9704 15.0407C16.997 14.0141 17.613 12.6225 17.613 11.0712C17.613 9.51983 16.9742 8.10538 15.9704 7.10157C14.9666 6.09777 13.5522 5.45898 12.0008 5.45898ZM15.1035 14.1966C14.305 14.9723 13.21 15.4742 12.0008 15.4742C10.7917 15.4742 9.69666 14.9723 8.89818 14.1966C8.0997 13.3982 7.62061 12.3031 7.62061 11.094C7.62061 9.88485 8.12251 8.78979 8.89818 7.99131C9.69666 7.19283 10.7917 6.71374 12.0008 6.71374C13.21 6.71374 14.305 7.21564 15.1035 7.99131C15.902 8.78979 16.3811 9.88485 16.3811 11.094C16.4039 12.3031 15.902 13.3982 15.1035 14.1966Z" fill="#518371"/>
<path d="M20.1218 7.67227C20.7392 7.67227 21.2396 7.17178 21.2396 6.55439C21.2396 5.93701 20.7392 5.43652 20.1218 5.43652C19.5044 5.43652 19.0039 5.93701 19.0039 6.55439C19.0039 7.17178 19.5044 7.67227 20.1218 7.67227Z" fill="#518371"/>
</g>
<defs>
<filter id="filter0_d" x="-4" y="0.554199" width="32" height="26.8897" filterUnits="userSpaceOnUse" color-interpolation-filters="sRGB">
<feFlood flood-opacity="0" result="BackgroundImageFix"/>
<feColorMatrix in="SourceAlpha" type="matrix" values="0 0 0 0 0 0 0 0 0 0 0 0 0 0 0 0 0 0 127 0"/>
<feOffset dy="4"/>
<feGaussianBlur stdDeviation="2"/>
<feColorMatrix type="matrix" values="0 0 0 0 0 0 0 0 0 0 0 0 0 0 0 0 0 0 0.25 0"/>
<feBlend mode="normal" in2="BackgroundImageFix" result="effect1_dropShadow"/>
<feBlend mode="normal" in="SourceGraphic" in2="effect1_dropShadow" result="shape"/>
</filter>
</defs>
</svg>
