<svg width="24" height="24" viewBox="0 0 24 24" fill="none" xmlns="http://www.w3.org/2000/svg">
<path d="M20.6606 1.64831C19.451 0.440797 17.4921 0.440797 16.2824 1.64831L15.1865 2.75026L3.52024 14.4103L3.49544 14.4353C3.48944 14.4413 3.48944 14.4477 3.48305 14.4477C3.47065 14.4663 3.45205 14.4847 3.43985 14.5033C3.43985 14.5095 3.43346 14.5095 3.43346 14.5157C3.42106 14.5343 3.41506 14.5467 3.40247 14.5653C3.39646 14.5715 3.39646 14.5775 3.39026 14.5839C3.38407 14.6025 3.37787 14.6149 3.37148 14.6335C3.37148 14.6395 3.36547 14.6395 3.36547 14.6459L0.77708 22.4294C0.701151 22.651 0.758873 22.8964 0.925647 23.0609C1.04283 23.1765 1.20089 23.2412 1.36534 23.2406C1.43256 23.2395 1.49919 23.229 1.5635 23.2097L9.34107 20.6151C9.34707 20.6151 9.34707 20.6151 9.35346 20.6091C9.37303 20.6032 9.39181 20.5949 9.40905 20.5841C9.4139 20.5835 9.41816 20.5814 9.42164 20.5781C9.44005 20.5657 9.46484 20.5531 9.48343 20.5407C9.50183 20.5285 9.52062 20.5099 9.53922 20.4975C9.54542 20.4911 9.55142 20.4911 9.55142 20.4851C9.55781 20.4789 9.57021 20.4729 9.57641 20.4603L22.3386 7.69809C23.5461 6.48845 23.5461 4.52958 22.3386 3.32012L20.6606 1.64831ZM9.14291 19.1598L4.83312 14.8502L15.62 4.06334L19.9298 8.37294L9.14291 19.1598ZM4.22607 15.9957L7.99118 19.7607L2.33751 21.643L4.22607 15.9957ZM21.4656 6.8311L20.8092 7.49374L16.4992 3.18376L17.162 2.52131C17.887 1.79688 19.0622 1.79688 19.7874 2.52131L21.4716 4.20552C22.1912 4.93382 22.1885 6.10628 21.4656 6.8311Z" fill="#518371"/>
</svg>
